<svg xmlns="http://www.w3.org/2000/svg" xmlns:xlink="http://www.w3.org/1999/xlink" width="500" zoomAndPan="magnify" viewBox="0 0 375 374.999991" height="500" preserveAspectRatio="xMidYMid meet" version="1.0"><defs><clipPath id="47f15bc35b"><path d="M 375 75 L 375 300 C 375 319.890625 367.097656 338.96875 353.03125 353.03125 C 338.96875 367.097656 319.890625 375 300 375 L 75 375 C 55.109375 375 36.03125 367.097656 21.96875 353.03125 C 7.902344 338.96875 0 319.890625 0 300 L 0 75 C 0 33.578125 33.578125 0 75 0 L 300 0 C 319.890625 0 338.96875 7.902344 353.03125 21.96875 C 367.097656 36.03125 375 55.109375 375 75 Z M 375 75 " clip-rule="nonzero"/></clipPath><clipPath id="ee96161911"><path d="M 0 0 L 375 0 L 375 375 L 0 375 Z M 0 0 " clip-rule="nonzero"/></clipPath><clipPath id="d7ecb0e30a"><path d="M 375 75 L 375 300 C 375 319.890625 367.097656 338.96875 353.03125 353.03125 C 338.96875 367.097656 319.890625 375 300 375 L 75 375 C 55.109375 375 36.03125 367.097656 21.96875 353.03125 C 7.902344 338.96875 0 319.890625 0 300 L 0 75 C 0 33.578125 33.578125 0 75 0 L 300 0 C 319.890625 0 338.96875 7.902344 353.03125 21.96875 C 367.097656 36.03125 375 55.109375 375 75 Z M 375 75 " clip-rule="nonzero"/></clipPath><linearGradient x1="128" gradientTransform="matrix(1.464844, 0, 0, 1.464844, 0.0000045, 0)" y1="0" x2="128" gradientUnits="userSpaceOnUse" y2="256" id="f8d10a5878"><stop stop-opacity="1" stop-color="rgb(7.449341%, 44.309998%, 35.688782%)" offset="0"/><stop stop-opacity="1" stop-color="rgb(7.415771%, 44.171143%, 35.575867%)" offset="0.015625"/><stop stop-opacity="1" stop-color="rgb(7.348633%, 43.894958%, 35.348511%)" offset="0.03125"/><stop stop-opacity="1" stop-color="rgb(7.281494%, 43.6203%, 35.122681%)" offset="0.046875"/><stop stop-opacity="1" stop-color="rgb(7.21283%, 43.344116%, 34.895325%)" offset="0.0625"/><stop stop-opacity="1" stop-color="rgb(7.145691%, 43.067932%, 34.667969%)" offset="0.078125"/><stop stop-opacity="1" stop-color="rgb(7.078552%, 42.793274%, 34.442139%)" offset="0.09375"/><stop stop-opacity="1" stop-color="rgb(7.011414%, 42.51709%, 34.214783%)" offset="0.109375"/><stop stop-opacity="1" stop-color="rgb(6.944275%, 42.240906%, 33.988953%)" offset="0.125"/><stop stop-opacity="1" stop-color="rgb(6.877136%, 41.966248%, 33.761597%)" offset="0.140625"/><stop stop-opacity="1" stop-color="rgb(6.809998%, 41.690063%, 33.534241%)" offset="0.15625"/><stop stop-opacity="1" stop-color="rgb(6.741333%, 41.415405%, 33.308411%)" offset="0.171875"/><stop stop-opacity="1" stop-color="rgb(6.674194%, 41.139221%, 33.081055%)" offset="0.1875"/><stop stop-opacity="1" stop-color="rgb(6.607056%, 40.863037%, 32.855225%)" offset="0.203125"/><stop stop-opacity="1" stop-color="rgb(6.539917%, 40.588379%, 32.627869%)" offset="0.21875"/><stop stop-opacity="1" stop-color="rgb(6.472778%, 40.312195%, 32.402039%)" offset="0.234375"/><stop stop-opacity="1" stop-color="rgb(6.40564%, 40.036011%, 32.174683%)" offset="0.25"/><stop stop-opacity="1" stop-color="rgb(6.338501%, 39.761353%, 31.947327%)" offset="0.265625"/><stop stop-opacity="1" stop-color="rgb(6.271362%, 39.485168%, 31.721497%)" offset="0.28125"/><stop stop-opacity="1" stop-color="rgb(6.202698%, 39.208984%, 31.494141%)" offset="0.296875"/><stop stop-opacity="1" stop-color="rgb(6.135559%, 38.934326%, 31.268311%)" offset="0.3125"/><stop stop-opacity="1" stop-color="rgb(6.06842%, 38.658142%, 31.040955%)" offset="0.328125"/><stop stop-opacity="1" stop-color="rgb(6.001282%, 38.383484%, 30.813599%)" offset="0.34375"/><stop stop-opacity="1" stop-color="rgb(5.934143%, 38.1073%, 30.587769%)" offset="0.359375"/><stop stop-opacity="1" stop-color="rgb(5.867004%, 37.831116%, 30.360413%)" offset="0.375"/><stop stop-opacity="1" stop-color="rgb(5.799866%, 37.556458%, 30.134583%)" offset="0.390625"/><stop stop-opacity="1" stop-color="rgb(5.731201%, 37.280273%, 29.907227%)" offset="0.40625"/><stop stop-opacity="1" stop-color="rgb(5.664062%, 37.004089%, 29.681396%)" offset="0.421875"/><stop stop-opacity="1" stop-color="rgb(5.596924%, 36.729431%, 29.454041%)" offset="0.4375"/><stop stop-opacity="1" stop-color="rgb(5.529785%, 36.453247%, 29.226685%)" offset="0.453125"/><stop stop-opacity="1" stop-color="rgb(5.462646%, 36.177063%, 29.000854%)" offset="0.46875"/><stop stop-opacity="1" stop-color="rgb(5.395508%, 35.902405%, 28.773499%)" offset="0.484375"/><stop stop-opacity="1" stop-color="rgb(5.328369%, 35.626221%, 28.547668%)" offset="0.5"/><stop stop-opacity="1" stop-color="rgb(5.259705%, 35.351562%, 28.320312%)" offset="0.515625"/><stop stop-opacity="1" stop-color="rgb(5.192566%, 35.075378%, 28.092957%)" offset="0.53125"/><stop stop-opacity="1" stop-color="rgb(5.125427%, 34.799194%, 27.867126%)" offset="0.546875"/><stop stop-opacity="1" stop-color="rgb(5.058289%, 34.524536%, 27.639771%)" offset="0.5625"/><stop stop-opacity="1" stop-color="rgb(4.99115%, 34.248352%, 27.41394%)" offset="0.578125"/><stop stop-opacity="1" stop-color="rgb(4.924011%, 33.972168%, 27.186584%)" offset="0.59375"/><stop stop-opacity="1" stop-color="rgb(4.856873%, 33.69751%, 26.960754%)" offset="0.609375"/><stop stop-opacity="1" stop-color="rgb(4.789734%, 33.421326%, 26.733398%)" offset="0.625"/><stop stop-opacity="1" stop-color="rgb(4.721069%, 33.146667%, 26.506042%)" offset="0.640625"/><stop stop-opacity="1" stop-color="rgb(4.653931%, 32.870483%, 26.280212%)" offset="0.65625"/><stop stop-opacity="1" stop-color="rgb(4.586792%, 32.594299%, 26.052856%)" offset="0.671875"/><stop stop-opacity="1" stop-color="rgb(4.519653%, 32.319641%, 25.827026%)" offset="0.6875"/><stop stop-opacity="1" stop-color="rgb(4.452515%, 32.043457%, 25.59967%)" offset="0.703125"/><stop stop-opacity="1" stop-color="rgb(4.385376%, 31.767273%, 25.37384%)" offset="0.71875"/><stop stop-opacity="1" stop-color="rgb(4.318237%, 31.492615%, 25.146484%)" offset="0.734375"/><stop stop-opacity="1" stop-color="rgb(4.249573%, 31.216431%, 24.919128%)" offset="0.75"/><stop stop-opacity="1" stop-color="rgb(4.182434%, 30.940247%, 24.693298%)" offset="0.765625"/><stop stop-opacity="1" stop-color="rgb(4.115295%, 30.665588%, 24.465942%)" offset="0.78125"/><stop stop-opacity="1" stop-color="rgb(4.048157%, 30.389404%, 24.240112%)" offset="0.796875"/><stop stop-opacity="1" stop-color="rgb(3.981018%, 30.114746%, 24.012756%)" offset="0.8125"/><stop stop-opacity="1" stop-color="rgb(3.913879%, 29.838562%, 23.7854%)" offset="0.828125"/><stop stop-opacity="1" stop-color="rgb(3.846741%, 29.562378%, 23.55957%)" offset="0.84375"/><stop stop-opacity="1" stop-color="rgb(3.779602%, 29.28772%, 23.332214%)" offset="0.859375"/><stop stop-opacity="1" stop-color="rgb(3.710938%, 29.011536%, 23.106384%)" offset="0.875"/><stop stop-opacity="1" stop-color="rgb(3.643799%, 28.735352%, 22.879028%)" offset="0.890625"/><stop stop-opacity="1" stop-color="rgb(3.57666%, 28.460693%, 22.653198%)" offset="0.90625"/><stop stop-opacity="1" stop-color="rgb(3.509521%, 28.184509%, 22.425842%)" offset="0.921875"/><stop stop-opacity="1" stop-color="rgb(3.442383%, 27.908325%, 22.198486%)" offset="0.9375"/><stop stop-opacity="1" stop-color="rgb(3.375244%, 27.633667%, 21.972656%)" offset="0.953125"/><stop stop-opacity="1" stop-color="rgb(3.308105%, 27.357483%, 21.7453%)" offset="0.96875"/><stop stop-opacity="1" stop-color="rgb(3.239441%, 27.082825%, 21.51947%)" offset="0.984375"/><stop stop-opacity="1" stop-color="rgb(3.172302%, 26.806641%, 21.292114%)" offset="1"/></linearGradient><clipPath id="d3a05c7f96"><rect x="0" width="375" y="0" height="375"/></clipPath><clipPath id="8ded15624a"><path d="M 138.804688 72.535156 L 259.554688 72.535156 L 259.554688 245.035156 L 138.804688 245.035156 Z M 138.804688 72.535156 " clip-rule="nonzero"/></clipPath></defs><g clip-path="url(#47f15bc35b)"><g transform="matrix(1, 0, 0, 1, 0, 0)"><g clip-path="url(#d3a05c7f96)"><g clip-path="url(#ee96161911)"><g clip-path="url(#d7ecb0e30a)"><rect x="-82.5" fill="url(#f8d10a5878)" width="540" height="539.999987" y="-82.499998"/></g></g></g></g></g><path stroke-linecap="round" transform="matrix(0.75, 0, 0, 0.75, 88.680188, 184.13946)" fill="none" stroke-linejoin="miter" d="M 8.999333 9.001554 L 67.093087 9.001554 " stroke="#ffffff" stroke-width="18" stroke-opacity="1" stroke-miterlimit="4"/><path stroke-linecap="round" transform="matrix(0.75, 0, 0, 0.75, 67.592916, 222.815861)" fill="none" stroke-linejoin="miter" d="M 9.001113 9.000728 L 128.537579 9.000728 " stroke="#ffffff" stroke-width="18" stroke-opacity="1" stroke-miterlimit="4"/><path stroke-linecap="round" transform="matrix(0.75, 0, 0, 0.75, 88.680188, 261.49223)" fill="none" stroke-linejoin="miter" d="M 8.999333 8.999944 L 183.322261 8.999944 " stroke="#ffffff" stroke-width="18" stroke-opacity="1" stroke-miterlimit="4"/><path stroke-linecap="round" transform="matrix(0.75, 0, 0, 0.75, 88.680188, 261.49223)" fill-opacity="1" fill="#ffffff" fill-rule="nonzero" stroke-linejoin="round" d="M 192.322262 -18.000058 L 228.322264 8.999944 L 192.322262 35.999946 Z M 192.322262 -18.000058 " stroke="#ffffff" stroke-width="18" stroke-opacity="1" stroke-miterlimit="4"/><g clip-path="url(#8ded15624a)"><path fill="#ffffff" d="M 199.207031 72.535156 C 165.855469 72.535156 138.804688 99.589844 138.804688 132.941406 C 138.804688 178.242188 199.207031 245.117188 199.207031 245.117188 C 199.207031 245.117188 259.613281 178.242188 259.613281 132.941406 C 259.613281 99.589844 232.558594 72.535156 199.207031 72.535156 Z M 199.207031 154.511719 C 187.300781 154.511719 177.636719 144.847656 177.636719 132.941406 C 177.636719 121.03125 187.300781 111.367188 199.207031 111.367188 C 211.117188 111.367188 220.78125 121.03125 220.78125 132.941406 C 220.78125 144.847656 211.117188 154.511719 199.207031 154.511719 Z M 199.207031 154.511719 " fill-opacity="1" fill-rule="nonzero"/></g></svg>