<svg xmlns="http://www.w3.org/2000/svg" xmlns:xlink="http://www.w3.org/1999/xlink" width="117" zoomAndPan="magnify" viewBox="0 0 87.75 30.000001" height="40" preserveAspectRatio="xMidYMid meet" version="1.0"><defs><g/><clipPath id="0d6118aa9c"><path d="M 28 6 L 86.214844 6 L 86.214844 20 L 28 20 Z M 28 6 " clip-rule="nonzero"/></clipPath><clipPath id="e2e1281b98"><rect x="0" width="59" y="0" height="14"/></clipPath><clipPath id="adcbdaa186"><path d="M 1.292969 2.257812 L 25.8125 2.257812 L 25.8125 26.777344 L 1.292969 26.777344 Z M 1.292969 2.257812 " clip-rule="nonzero"/></clipPath><clipPath id="66d376f96b"><path d="M 25.8125 9.511719 L 25.8125 19.523438 C 25.8125 23.527344 22.566406 26.777344 18.558594 26.777344 L 8.546875 26.777344 C 4.542969 26.777344 1.292969 23.527344 1.292969 19.523438 L 1.292969 9.511719 C 1.292969 5.503906 4.542969 2.257812 8.546875 2.257812 L 18.558594 2.257812 C 22.566406 2.257812 25.8125 5.503906 25.8125 9.511719 Z M 25.8125 9.511719 " clip-rule="nonzero"/></clipPath><clipPath id="f74da55372"><path d="M 0.292969 0.257812 L 24.8125 0.257812 L 24.8125 24.777344 L 0.292969 24.777344 Z M 0.292969 0.257812 " clip-rule="nonzero"/></clipPath><clipPath id="d8b9195dbe"><path d="M 24.8125 7.511719 L 24.8125 17.523438 C 24.8125 21.527344 21.566406 24.777344 17.558594 24.777344 L 7.546875 24.777344 C 3.542969 24.777344 0.292969 21.527344 0.292969 17.523438 L 0.292969 7.511719 C 0.292969 3.503906 3.542969 0.257812 7.546875 0.257812 L 17.558594 0.257812 C 21.566406 0.257812 24.8125 3.503906 24.8125 7.511719 Z M 24.8125 7.511719 " clip-rule="nonzero"/></clipPath><linearGradient x1="128" gradientTransform="matrix(0.0957812, 0, 0, 0.0957812, 0.294353, 0.256135)" y1="0.0000000242488" x2="128" gradientUnits="userSpaceOnUse" y2="256" id="516dff018e"><stop stop-opacity="1" stop-color="rgb(7.449341%, 44.309998%, 35.688782%)" offset="0"/><stop stop-opacity="1" stop-color="rgb(7.415771%, 44.171143%, 35.575867%)" offset="0.015625"/><stop stop-opacity="1" stop-color="rgb(7.348633%, 43.894958%, 35.348511%)" offset="0.03125"/><stop stop-opacity="1" stop-color="rgb(7.281494%, 43.6203%, 35.122681%)" offset="0.046875"/><stop stop-opacity="1" stop-color="rgb(7.21283%, 43.344116%, 34.895325%)" offset="0.0625"/><stop stop-opacity="1" stop-color="rgb(7.145691%, 43.067932%, 34.667969%)" offset="0.078125"/><stop stop-opacity="1" stop-color="rgb(7.078552%, 42.793274%, 34.442139%)" offset="0.09375"/><stop stop-opacity="1" stop-color="rgb(7.011414%, 42.51709%, 34.214783%)" offset="0.109375"/><stop stop-opacity="1" stop-color="rgb(6.944275%, 42.240906%, 33.988953%)" offset="0.125"/><stop stop-opacity="1" stop-color="rgb(6.877136%, 41.966248%, 33.761597%)" offset="0.140625"/><stop stop-opacity="1" stop-color="rgb(6.809998%, 41.690063%, 33.534241%)" offset="0.15625"/><stop stop-opacity="1" stop-color="rgb(6.741333%, 41.415405%, 33.308411%)" offset="0.171875"/><stop stop-opacity="1" stop-color="rgb(6.674194%, 41.139221%, 33.081055%)" offset="0.1875"/><stop stop-opacity="1" stop-color="rgb(6.607056%, 40.863037%, 32.855225%)" offset="0.203125"/><stop stop-opacity="1" stop-color="rgb(6.539917%, 40.588379%, 32.627869%)" offset="0.21875"/><stop stop-opacity="1" stop-color="rgb(6.472778%, 40.312195%, 32.402039%)" offset="0.234375"/><stop stop-opacity="1" stop-color="rgb(6.40564%, 40.036011%, 32.174683%)" offset="0.25"/><stop stop-opacity="1" stop-color="rgb(6.338501%, 39.761353%, 31.947327%)" offset="0.265625"/><stop stop-opacity="1" stop-color="rgb(6.271362%, 39.485168%, 31.721497%)" offset="0.28125"/><stop stop-opacity="1" stop-color="rgb(6.202698%, 39.208984%, 31.494141%)" offset="0.296875"/><stop stop-opacity="1" stop-color="rgb(6.135559%, 38.934326%, 31.268311%)" offset="0.3125"/><stop stop-opacity="1" stop-color="rgb(6.06842%, 38.658142%, 31.040955%)" offset="0.328125"/><stop stop-opacity="1" stop-color="rgb(6.001282%, 38.383484%, 30.813599%)" offset="0.34375"/><stop stop-opacity="1" stop-color="rgb(5.934143%, 38.1073%, 30.587769%)" offset="0.359375"/><stop stop-opacity="1" stop-color="rgb(5.867004%, 37.831116%, 30.360413%)" offset="0.375"/><stop stop-opacity="1" stop-color="rgb(5.799866%, 37.556458%, 30.134583%)" offset="0.390625"/><stop stop-opacity="1" stop-color="rgb(5.731201%, 37.280273%, 29.907227%)" offset="0.40625"/><stop stop-opacity="1" stop-color="rgb(5.664062%, 37.004089%, 29.681396%)" offset="0.421875"/><stop stop-opacity="1" stop-color="rgb(5.596924%, 36.729431%, 29.454041%)" offset="0.4375"/><stop stop-opacity="1" stop-color="rgb(5.529785%, 36.453247%, 29.226685%)" offset="0.453125"/><stop stop-opacity="1" stop-color="rgb(5.462646%, 36.177063%, 29.000854%)" offset="0.46875"/><stop stop-opacity="1" stop-color="rgb(5.395508%, 35.902405%, 28.773499%)" offset="0.484375"/><stop stop-opacity="1" stop-color="rgb(5.328369%, 35.626221%, 28.547668%)" offset="0.5"/><stop stop-opacity="1" stop-color="rgb(5.259705%, 35.351562%, 28.320312%)" offset="0.515625"/><stop stop-opacity="1" stop-color="rgb(5.192566%, 35.075378%, 28.092957%)" offset="0.53125"/><stop stop-opacity="1" stop-color="rgb(5.125427%, 34.799194%, 27.867126%)" offset="0.546875"/><stop stop-opacity="1" stop-color="rgb(5.058289%, 34.524536%, 27.639771%)" offset="0.5625"/><stop stop-opacity="1" stop-color="rgb(4.99115%, 34.248352%, 27.41394%)" offset="0.578125"/><stop stop-opacity="1" stop-color="rgb(4.924011%, 33.972168%, 27.186584%)" offset="0.59375"/><stop stop-opacity="1" stop-color="rgb(4.856873%, 33.69751%, 26.960754%)" offset="0.609375"/><stop stop-opacity="1" stop-color="rgb(4.789734%, 33.421326%, 26.733398%)" offset="0.625"/><stop stop-opacity="1" stop-color="rgb(4.721069%, 33.146667%, 26.506042%)" offset="0.640625"/><stop stop-opacity="1" stop-color="rgb(4.653931%, 32.870483%, 26.280212%)" offset="0.65625"/><stop stop-opacity="1" stop-color="rgb(4.586792%, 32.594299%, 26.052856%)" offset="0.671875"/><stop stop-opacity="1" stop-color="rgb(4.519653%, 32.319641%, 25.827026%)" offset="0.6875"/><stop stop-opacity="1" stop-color="rgb(4.452515%, 32.043457%, 25.59967%)" offset="0.703125"/><stop stop-opacity="1" stop-color="rgb(4.385376%, 31.767273%, 25.37384%)" offset="0.71875"/><stop stop-opacity="1" stop-color="rgb(4.318237%, 31.492615%, 25.146484%)" offset="0.734375"/><stop stop-opacity="1" stop-color="rgb(4.249573%, 31.216431%, 24.919128%)" offset="0.75"/><stop stop-opacity="1" stop-color="rgb(4.182434%, 30.940247%, 24.693298%)" offset="0.765625"/><stop stop-opacity="1" stop-color="rgb(4.115295%, 30.665588%, 24.465942%)" offset="0.78125"/><stop stop-opacity="1" stop-color="rgb(4.048157%, 30.389404%, 24.240112%)" offset="0.796875"/><stop stop-opacity="1" stop-color="rgb(3.981018%, 30.114746%, 24.012756%)" offset="0.8125"/><stop stop-opacity="1" stop-color="rgb(3.913879%, 29.838562%, 23.7854%)" offset="0.828125"/><stop stop-opacity="1" stop-color="rgb(3.846741%, 29.562378%, 23.55957%)" offset="0.84375"/><stop stop-opacity="1" stop-color="rgb(3.779602%, 29.28772%, 23.332214%)" offset="0.859375"/><stop stop-opacity="1" stop-color="rgb(3.710938%, 29.011536%, 23.106384%)" offset="0.875"/><stop stop-opacity="1" stop-color="rgb(3.643799%, 28.735352%, 22.879028%)" offset="0.890625"/><stop stop-opacity="1" stop-color="rgb(3.57666%, 28.460693%, 22.653198%)" offset="0.90625"/><stop stop-opacity="1" stop-color="rgb(3.509521%, 28.184509%, 22.425842%)" offset="0.921875"/><stop stop-opacity="1" stop-color="rgb(3.442383%, 27.908325%, 22.198486%)" offset="0.9375"/><stop stop-opacity="1" stop-color="rgb(3.375244%, 27.633667%, 21.972656%)" offset="0.953125"/><stop stop-opacity="1" stop-color="rgb(3.308105%, 27.357483%, 21.7453%)" offset="0.96875"/><stop stop-opacity="1" stop-color="rgb(3.239441%, 27.082825%, 21.51947%)" offset="0.984375"/><stop stop-opacity="1" stop-color="rgb(3.172302%, 26.806641%, 21.292114%)" offset="1"/></linearGradient><clipPath id="5ce92605b6"><rect x="0" width="25" y="0" height="25"/></clipPath><clipPath id="7b3f272d3d"><path d="M 10.375 7 L 18.359375 7 L 18.359375 18.613281 L 10.375 18.613281 Z M 10.375 7 " clip-rule="nonzero"/></clipPath></defs><g clip-path="url(#0d6118aa9c)"><g transform="matrix(1, 0, 0, 1, 28, 6)"><g clip-path="url(#e2e1281b98)"><g fill="#ffffff" fill-opacity="1"><g transform="translate(0.831694, 11.080341)"><g><path d="M 2.671875 0 L 2.671875 -7.265625 L 0.296875 -7.265625 L 0.296875 -8.828125 L 7.078125 -8.828125 L 7.078125 -7.265625 L 4.6875 -7.265625 L 4.6875 0 Z M 2.671875 0 "/></g></g></g><g fill="#ffffff" fill-opacity="1"><g transform="translate(7.766862, 11.080341)"><g><path d="M 0.796875 0 L 0.796875 -6.453125 L 2.578125 -6.453125 L 2.578125 -5.21875 C 2.785156 -5.65625 3.050781 -5.984375 3.375 -6.203125 C 3.707031 -6.429688 4.140625 -6.546875 4.671875 -6.546875 L 4.671875 -4.890625 C 4.003906 -4.898438 3.488281 -4.78125 3.125 -4.53125 C 2.757812 -4.28125 2.578125 -3.847656 2.578125 -3.234375 L 2.578125 0 Z M 0.796875 0 "/></g></g></g><g fill="#ffffff" fill-opacity="1"><g transform="translate(12.690646, 11.080341)"><g><path d="M 2.53125 0.140625 C 2.144531 0.140625 1.785156 0.0703125 1.453125 -0.0625 C 1.128906 -0.195312 0.867188 -0.40625 0.671875 -0.6875 C 0.472656 -0.96875 0.375 -1.335938 0.375 -1.796875 C 0.375 -2.296875 0.515625 -2.695312 0.796875 -3 C 1.078125 -3.300781 1.46875 -3.519531 1.96875 -3.65625 C 2.476562 -3.789062 3.066406 -3.859375 3.734375 -3.859375 L 4.453125 -3.859375 L 4.453125 -4.125 C 4.453125 -4.507812 4.378906 -4.800781 4.234375 -5 C 4.097656 -5.207031 3.820312 -5.3125 3.40625 -5.3125 C 3.050781 -5.3125 2.789062 -5.226562 2.625 -5.0625 C 2.457031 -4.894531 2.351562 -4.671875 2.3125 -4.390625 L 0.609375 -4.390625 C 0.648438 -4.898438 0.800781 -5.316406 1.0625 -5.640625 C 1.320312 -5.972656 1.664062 -6.21875 2.09375 -6.375 C 2.519531 -6.53125 2.992188 -6.609375 3.515625 -6.609375 C 4.046875 -6.609375 4.515625 -6.53125 4.921875 -6.375 C 5.328125 -6.21875 5.644531 -5.960938 5.875 -5.609375 C 6.101562 -5.253906 6.21875 -4.785156 6.21875 -4.203125 L 6.21875 0 L 4.484375 0 L 4.484375 -0.78125 C 4.296875 -0.519531 4.050781 -0.300781 3.75 -0.125 C 3.445312 0.0507812 3.039062 0.140625 2.53125 0.140625 Z M 3.0625 -1.109375 C 3.457031 -1.109375 3.785156 -1.210938 4.046875 -1.421875 C 4.316406 -1.628906 4.453125 -1.910156 4.453125 -2.265625 L 4.453125 -2.796875 L 3.765625 -2.796875 C 3.242188 -2.796875 2.835938 -2.726562 2.546875 -2.59375 C 2.265625 -2.46875 2.125 -2.234375 2.125 -1.890625 C 2.125 -1.660156 2.195312 -1.472656 2.34375 -1.328125 C 2.488281 -1.179688 2.726562 -1.109375 3.0625 -1.109375 Z M 3.0625 -1.109375 "/></g></g></g><g fill="#ffffff" fill-opacity="1"><g transform="translate(19.650639, 11.080341)"><g><path d="M 3.71875 0.140625 C 3.09375 0.140625 2.523438 0.015625 2.015625 -0.234375 C 1.515625 -0.492188 1.117188 -0.867188 0.828125 -1.359375 C 0.535156 -1.847656 0.390625 -2.441406 0.390625 -3.140625 L 0.390625 -3.25 C 0.390625 -3.945312 0.539062 -4.546875 0.84375 -5.046875 C 1.144531 -5.546875 1.546875 -5.929688 2.046875 -6.203125 C 2.554688 -6.472656 3.117188 -6.609375 3.734375 -6.609375 C 4.234375 -6.609375 4.703125 -6.523438 5.140625 -6.359375 C 5.578125 -6.203125 5.941406 -5.941406 6.234375 -5.578125 C 6.535156 -5.210938 6.710938 -4.71875 6.765625 -4.09375 L 5.078125 -4.09375 C 5.015625 -4.476562 4.867188 -4.757812 4.640625 -4.9375 C 4.421875 -5.113281 4.128906 -5.203125 3.765625 -5.203125 C 3.304688 -5.203125 2.929688 -5.035156 2.640625 -4.703125 C 2.359375 -4.367188 2.21875 -3.890625 2.21875 -3.265625 L 2.21875 -3.171875 C 2.21875 -2.523438 2.351562 -2.035156 2.625 -1.703125 C 2.90625 -1.367188 3.296875 -1.203125 3.796875 -1.203125 C 4.160156 -1.203125 4.472656 -1.304688 4.734375 -1.515625 C 4.992188 -1.734375 5.144531 -2.046875 5.1875 -2.453125 L 6.796875 -2.453125 C 6.753906 -1.691406 6.460938 -1.066406 5.921875 -0.578125 C 5.390625 -0.0976562 4.65625 0.140625 3.71875 0.140625 Z M 3.71875 0.140625 "/></g></g></g><g fill="#ffffff" fill-opacity="1"><g transform="translate(26.783391, 11.080341)"><g><path d="M 0.796875 0 L 0.796875 -9.375 L 2.578125 -9.375 L 2.578125 -3.734375 L 4.65625 -6.453125 L 6.546875 -6.453125 L 4.203125 -3.515625 L 6.734375 0 L 4.71875 0 L 2.578125 -3.046875 L 2.578125 0 Z M 0.796875 0 "/></g></g></g><g fill="#ffffff" fill-opacity="1"><g transform="translate(33.632314, 11.080341)"><g><path d="M 0.953125 0 L 0.953125 -8.828125 L 6.609375 -8.828125 L 6.609375 -7.265625 L 2.953125 -7.265625 L 2.953125 -4.921875 L 5.84375 -4.921875 L 5.84375 -3.421875 L 2.953125 -3.421875 L 2.953125 0 Z M 0.953125 0 "/></g></g></g><g fill="#ffffff" fill-opacity="1"><g transform="translate(40.382439, 11.080341)"><g><path d="M 2.53125 0.140625 C 2.144531 0.140625 1.785156 0.0703125 1.453125 -0.0625 C 1.128906 -0.195312 0.867188 -0.40625 0.671875 -0.6875 C 0.472656 -0.96875 0.375 -1.335938 0.375 -1.796875 C 0.375 -2.296875 0.515625 -2.695312 0.796875 -3 C 1.078125 -3.300781 1.46875 -3.519531 1.96875 -3.65625 C 2.476562 -3.789062 3.066406 -3.859375 3.734375 -3.859375 L 4.453125 -3.859375 L 4.453125 -4.125 C 4.453125 -4.507812 4.378906 -4.800781 4.234375 -5 C 4.097656 -5.207031 3.820312 -5.3125 3.40625 -5.3125 C 3.050781 -5.3125 2.789062 -5.226562 2.625 -5.0625 C 2.457031 -4.894531 2.351562 -4.671875 2.3125 -4.390625 L 0.609375 -4.390625 C 0.648438 -4.898438 0.800781 -5.316406 1.0625 -5.640625 C 1.320312 -5.972656 1.664062 -6.21875 2.09375 -6.375 C 2.519531 -6.53125 2.992188 -6.609375 3.515625 -6.609375 C 4.046875 -6.609375 4.515625 -6.53125 4.921875 -6.375 C 5.328125 -6.21875 5.644531 -5.960938 5.875 -5.609375 C 6.101562 -5.253906 6.21875 -4.785156 6.21875 -4.203125 L 6.21875 0 L 4.484375 0 L 4.484375 -0.78125 C 4.296875 -0.519531 4.050781 -0.300781 3.75 -0.125 C 3.445312 0.0507812 3.039062 0.140625 2.53125 0.140625 Z M 3.0625 -1.109375 C 3.457031 -1.109375 3.785156 -1.210938 4.046875 -1.421875 C 4.316406 -1.628906 4.453125 -1.910156 4.453125 -2.265625 L 4.453125 -2.796875 L 3.765625 -2.796875 C 3.242188 -2.796875 2.835938 -2.726562 2.546875 -2.59375 C 2.265625 -2.46875 2.125 -2.234375 2.125 -1.890625 C 2.125 -1.660156 2.195312 -1.472656 2.34375 -1.328125 C 2.488281 -1.179688 2.726562 -1.109375 3.0625 -1.109375 Z M 3.0625 -1.109375 "/></g></g></g><g fill="#ffffff" fill-opacity="1"><g transform="translate(47.342432, 11.080341)"><g><path d="M 3.140625 0.140625 C 2.265625 0.140625 1.582031 -0.0390625 1.09375 -0.40625 C 0.613281 -0.78125 0.359375 -1.320312 0.328125 -2.03125 L 1.984375 -2.03125 C 2.023438 -1.738281 2.128906 -1.507812 2.296875 -1.34375 C 2.460938 -1.1875 2.738281 -1.109375 3.125 -1.109375 C 3.800781 -1.109375 4.140625 -1.34375 4.140625 -1.8125 C 4.140625 -2.03125 4.035156 -2.195312 3.828125 -2.3125 C 3.617188 -2.425781 3.285156 -2.515625 2.828125 -2.578125 C 1.972656 -2.710938 1.359375 -2.925781 0.984375 -3.21875 C 0.617188 -3.507812 0.4375 -3.96875 0.4375 -4.59375 C 0.4375 -5.039062 0.554688 -5.410156 0.796875 -5.703125 C 1.046875 -6.003906 1.363281 -6.226562 1.75 -6.375 C 2.144531 -6.53125 2.5625 -6.609375 3 -6.609375 C 3.476562 -6.609375 3.90625 -6.539062 4.28125 -6.40625 C 4.664062 -6.28125 4.976562 -6.070312 5.21875 -5.78125 C 5.46875 -5.488281 5.617188 -5.097656 5.671875 -4.609375 L 4.03125 -4.609375 C 3.976562 -4.867188 3.875 -5.0625 3.71875 -5.1875 C 3.5625 -5.3125 3.328125 -5.375 3.015625 -5.375 C 2.722656 -5.375 2.492188 -5.3125 2.328125 -5.1875 C 2.171875 -5.070312 2.09375 -4.914062 2.09375 -4.71875 C 2.09375 -4.507812 2.179688 -4.351562 2.359375 -4.25 C 2.546875 -4.15625 2.875 -4.078125 3.34375 -4.015625 C 3.882812 -3.941406 4.335938 -3.832031 4.703125 -3.6875 C 5.078125 -3.550781 5.359375 -3.347656 5.546875 -3.078125 C 5.742188 -2.804688 5.84375 -2.441406 5.84375 -1.984375 C 5.84375 -1.285156 5.601562 -0.753906 5.125 -0.390625 C 4.65625 -0.0351562 3.992188 0.140625 3.140625 0.140625 Z M 3.140625 0.140625 "/></g></g></g><g fill="#ffffff" fill-opacity="1"><g transform="translate(53.537317, 11.080341)"><g><path d="M 3.140625 0.125 C 2.472656 0.125 1.957031 -0.046875 1.59375 -0.390625 C 1.238281 -0.734375 1.0625 -1.238281 1.0625 -1.90625 L 1.0625 -5.1875 L 0.234375 -5.1875 L 0.234375 -6.453125 L 1.0625 -6.453125 L 1.0625 -7.84375 L 2.84375 -7.84375 L 2.84375 -6.453125 L 4.203125 -6.453125 L 4.203125 -5.1875 L 2.84375 -5.1875 L 2.84375 -2.078125 C 2.84375 -1.566406 3.082031 -1.3125 3.5625 -1.3125 C 3.8125 -1.3125 4.035156 -1.351562 4.234375 -1.4375 L 4.234375 -0.046875 C 4.109375 -0.00390625 3.953125 0.03125 3.765625 0.0625 C 3.585938 0.101562 3.378906 0.125 3.140625 0.125 Z M 3.140625 0.125 "/></g></g></g></g></g></g><g clip-path="url(#adcbdaa186)"><g clip-path="url(#66d376f96b)"><g transform="matrix(1, 0, 0, 1, 1, 2)"><g clip-path="url(#5ce92605b6)"><g clip-path="url(#f74da55372)"><g clip-path="url(#d8b9195dbe)"><path fill="url(#516dff018e)" d="M 0.292969 0.257812 L 0.292969 24.777344 L 24.8125 24.777344 L 24.8125 0.257812 Z M 0.292969 0.257812 " fill-rule="nonzero"/></g></g></g></g></g></g><path stroke-linecap="round" transform="matrix(0.725806, 0, 0, 0.725806, 7.095754, 14.381098)" fill="none" stroke-linejoin="miter" d="M 0.49776 0.497501 L 4.641857 0.497501 " stroke="#ffffff" stroke-width="1" stroke-opacity="1" stroke-miterlimit="4"/><path stroke-linecap="round" transform="matrix(0.725806, 0, 0, 0.725806, 5.716238, 16.911283)" fill="none" stroke-linejoin="miter" d="M 0.4986 0.498968 L 8.797558 0.498968 " stroke="#ffffff" stroke-width="1" stroke-opacity="1" stroke-miterlimit="4"/><path stroke-linecap="round" transform="matrix(0.725806, 0, 0, 0.725806, 7.095754, 19.441468)" fill="none" stroke-linejoin="miter" d="M 0.49776 0.500435 L 13.043073 0.500435 " stroke="#ffffff" stroke-width="1" stroke-opacity="1" stroke-miterlimit="4"/><path stroke-linecap="round" transform="matrix(0.725806, 0, 0, 0.725806, 7.095754, 19.441468)" fill-opacity="1" fill="#ffffff" fill-rule="nonzero" stroke-linejoin="round" d="M 13.543593 -1.001127 L 15.540295 0.500435 L 13.543593 2.001998 Z M 13.543593 -1.001127 " stroke="#ffffff" stroke-width="1" stroke-opacity="1" stroke-miterlimit="4"/><g clip-path="url(#7b3f272d3d)"><path fill="#ffffff" d="M 14.320312 7.003906 C 12.140625 7.003906 10.375 8.773438 10.375 10.953125 C 10.375 13.910156 14.320312 18.28125 14.320312 18.28125 C 14.320312 18.28125 18.269531 13.910156 18.269531 10.953125 C 18.269531 8.773438 16.5 7.003906 14.320312 7.003906 Z M 14.320312 12.363281 C 13.542969 12.363281 12.910156 11.730469 12.910156 10.953125 C 12.910156 10.175781 13.542969 9.542969 14.320312 9.542969 C 15.097656 9.542969 15.730469 10.175781 15.730469 10.953125 C 15.730469 11.730469 15.097656 12.363281 14.320312 12.363281 Z M 14.320312 12.363281 " fill-opacity="1" fill-rule="nonzero"/></g></svg>