<svg xmlns="http://www.w3.org/2000/svg" xmlns:xlink="http://www.w3.org/1999/xlink" width="117" zoomAndPan="magnify" viewBox="0 0 87.75 30.000001" height="40" preserveAspectRatio="xMidYMid meet" version="1.0"><defs><g/><clipPath id="c7c350b6e9"><path d="M 0.199219 1.027344 L 21.171875 1.027344 L 21.171875 22.003906 L 0.199219 22.003906 Z M 0.199219 1.027344 " clip-rule="nonzero"/></clipPath><clipPath id="396eb8ffc3"><path d="M 21.171875 6.835938 L 21.171875 16.199219 C 21.171875 19.40625 18.574219 22.003906 15.367188 22.003906 L 6.003906 22.003906 C 2.796875 22.003906 0.199219 19.40625 0.199219 16.199219 L 0.199219 6.835938 C 0.199219 3.628906 2.796875 1.027344 6.003906 1.027344 L 15.367188 1.027344 C 18.574219 1.027344 21.171875 3.628906 21.171875 6.835938 Z M 21.171875 6.835938 " clip-rule="nonzero"/></clipPath><clipPath id="71580708c0"><path d="M 0.199219 0.0273438 L 21.171875 0.0273438 L 21.171875 21.003906 L 0.199219 21.003906 Z M 0.199219 0.0273438 " clip-rule="nonzero"/></clipPath><clipPath id="8529125c86"><path d="M 21.171875 5.835938 L 21.171875 15.199219 C 21.171875 18.40625 18.574219 21.003906 15.367188 21.003906 L 6.003906 21.003906 C 2.796875 21.003906 0.199219 18.40625 0.199219 15.199219 L 0.199219 5.835938 C 0.199219 2.628906 2.796875 0.0273438 6.003906 0.0273438 L 15.367188 0.0273438 C 18.574219 0.0273438 21.171875 2.628906 21.171875 5.835938 Z M 21.171875 5.835938 " clip-rule="nonzero"/></clipPath><clipPath id="d2c97fdb31"><rect x="0" width="22" y="0" height="22"/></clipPath><clipPath id="207d66f350"><path d="M 7.960938 5.085938 L 14.714844 5.085938 L 14.714844 14.734375 L 7.960938 14.734375 Z M 7.960938 5.085938 " clip-rule="nonzero"/></clipPath><clipPath id="497628bb93"><rect x="0" width="22" y="0" height="23"/></clipPath></defs><g transform="matrix(1, 0, 0, 1, 4, 3)"><g clip-path="url(#497628bb93)"><g clip-path="url(#c7c350b6e9)"><g clip-path="url(#396eb8ffc3)"><g transform="matrix(1, 0, 0, 1, 0, 1)"><g clip-path="url(#d2c97fdb31)"><g clip-path="url(#71580708c0)"><g clip-path="url(#8529125c86)"><path fill="#12715b" d="M 0.199219 0.0273438 L 21.171875 0.0273438 L 21.171875 21.003906 L 0.199219 21.003906 Z M 0.199219 0.0273438 " fill-opacity="1" fill-rule="nonzero"/></g></g></g></g></g></g><path stroke-linecap="round" transform="matrix(0.0419516, 0, 0, 0.0419516, 5.157948, 11.328158)" fill="none" stroke-linejoin="miter" d="M 8.991512 9.031188 L 67.094168 9.031188 " stroke="#ffffff" stroke-width="18" stroke-opacity="1" stroke-miterlimit="4"/><path stroke-linecap="round" transform="matrix(0.0419516, 0, 0, 0.0419516, 3.978421, 13.49154)" fill="none" stroke-linejoin="miter" d="M 8.98768 8.954304 L 128.545069 8.954304 " stroke="#ffffff" stroke-width="18" stroke-opacity="1" stroke-miterlimit="4"/><path stroke-linecap="round" transform="matrix(0.0419516, 0, 0, 0.0419516, 5.157948, 15.654922)" fill="none" stroke-linejoin="miter" d="M 8.991512 8.970533 L 183.299481 8.970533 " stroke="#ffffff" stroke-width="18" stroke-opacity="1" stroke-miterlimit="4"/><path stroke-linecap="round" transform="matrix(0.0419516, 0, 0, 0.0419516, 5.157948, 15.654922)" fill-opacity="1" fill="#ffffff" fill-rule="nonzero" stroke-linejoin="round" d="M 192.331465 -18.032304 L 228.366285 8.970533 L 192.331465 35.973371 Z M 192.331465 -18.032304 " stroke="#ffffff" stroke-width="18" stroke-opacity="1" stroke-miterlimit="4"/><g clip-path="url(#207d66f350)"><path fill="#ffffff" d="M 11.339844 5.085938 C 9.476562 5.085938 7.960938 6.597656 7.960938 8.464844 C 7.960938 11 11.339844 14.738281 11.339844 14.738281 C 11.339844 14.738281 14.71875 11 14.71875 8.464844 C 14.71875 6.597656 13.207031 5.085938 11.339844 5.085938 Z M 11.339844 9.671875 C 10.675781 9.671875 10.132812 9.128906 10.132812 8.464844 C 10.132812 7.796875 10.675781 7.257812 11.339844 7.257812 C 12.007812 7.257812 12.546875 7.796875 12.546875 8.464844 C 12.546875 9.128906 12.007812 9.671875 11.339844 9.671875 Z M 11.339844 9.671875 " fill-opacity="1" fill-rule="nonzero"/></g></g></g><g fill="#121212" fill-opacity="1"><g transform="translate(29.062455, 17.600808)"><g><path d="M 2.296875 0 L 2.296875 -6.21875 L 0.234375 -6.21875 L 0.234375 -7.984375 L 6.65625 -7.984375 L 6.65625 -6.21875 L 4.59375 -6.21875 L 4.59375 0 Z M 2.296875 0 "/></g></g></g><g fill="#121212" fill-opacity="1"><g transform="translate(35.623962, 17.600808)"><g><path d="M 0.59375 0 L 0.59375 -5.828125 L 2.59375 -5.828125 L 2.59375 -4.671875 C 2.945312 -5.503906 3.570312 -5.914062 4.46875 -5.90625 L 4.46875 -4.046875 C 3.21875 -4.085938 2.59375 -3.660156 2.59375 -2.765625 L 2.59375 0 Z M 0.59375 0 "/></g></g></g><g fill="#121212" fill-opacity="1"><g transform="translate(40.288478, 17.600808)"><g><path d="M 2.234375 0.140625 C 1.660156 0.140625 1.1875 -0.00390625 0.8125 -0.296875 C 0.4375 -0.585938 0.25 -1.03125 0.25 -1.625 C 0.25 -2.894531 1.285156 -3.53125 3.359375 -3.53125 L 3.921875 -3.53125 L 3.921875 -3.65625 C 3.921875 -3.957031 3.863281 -4.1875 3.75 -4.34375 C 3.644531 -4.5 3.441406 -4.578125 3.140625 -4.578125 C 2.671875 -4.578125 2.410156 -4.347656 2.359375 -3.890625 L 0.484375 -3.890625 C 0.523438 -4.578125 0.796875 -5.097656 1.296875 -5.453125 C 1.796875 -5.804688 2.453125 -5.984375 3.265625 -5.984375 C 4.097656 -5.984375 4.742188 -5.800781 5.203125 -5.4375 C 5.671875 -5.082031 5.90625 -4.53125 5.90625 -3.78125 L 5.90625 0 L 3.953125 0 L 3.953125 -0.6875 C 3.597656 -0.132812 3.023438 0.140625 2.234375 0.140625 Z M 2.921875 -1.21875 C 3.210938 -1.21875 3.453125 -1.289062 3.640625 -1.4375 C 3.828125 -1.59375 3.921875 -1.796875 3.921875 -2.046875 L 3.921875 -2.40625 L 3.390625 -2.40625 C 2.984375 -2.40625 2.6875 -2.359375 2.5 -2.265625 C 2.320312 -2.171875 2.234375 -2.003906 2.234375 -1.765625 C 2.234375 -1.398438 2.460938 -1.21875 2.921875 -1.21875 Z M 2.921875 -1.21875 "/></g></g></g><g fill="#121212" fill-opacity="1"><g transform="translate(46.738494, 17.600808)"><g><path d="M 3.34375 0.140625 C 2.4375 0.140625 1.695312 -0.117188 1.125 -0.640625 C 0.5625 -1.160156 0.28125 -1.894531 0.28125 -2.84375 L 0.28125 -2.9375 C 0.28125 -3.875 0.570312 -4.613281 1.15625 -5.15625 C 1.75 -5.707031 2.492188 -5.984375 3.390625 -5.984375 C 3.898438 -5.984375 4.351562 -5.910156 4.75 -5.765625 C 5.144531 -5.628906 5.484375 -5.375 5.765625 -5 C 6.046875 -4.625 6.207031 -4.15625 6.25 -3.59375 L 4.375 -3.59375 C 4.28125 -4.15625 3.96875 -4.4375 3.4375 -4.4375 C 3.082031 -4.4375 2.804688 -4.3125 2.609375 -4.0625 C 2.421875 -3.8125 2.328125 -3.441406 2.328125 -2.953125 L 2.328125 -2.859375 C 2.328125 -1.835938 2.707031 -1.328125 3.46875 -1.328125 C 3.75 -1.328125 3.976562 -1.410156 4.15625 -1.578125 C 4.34375 -1.742188 4.453125 -1.984375 4.484375 -2.296875 L 6.28125 -2.296875 C 6.25 -1.546875 5.984375 -0.953125 5.484375 -0.515625 C 4.984375 -0.078125 4.269531 0.140625 3.34375 0.140625 Z M 3.34375 0.140625 "/></g></g></g><g fill="#121212" fill-opacity="1"><g transform="translate(53.244305, 17.600808)"><g><path d="M 0.59375 0 L 0.59375 -8.40625 L 2.59375 -8.40625 L 2.59375 -3.53125 L 4.15625 -5.828125 L 6.234375 -5.828125 L 4.328125 -3.21875 L 6.390625 0 L 4.15625 0 L 2.59375 -2.5625 L 2.59375 0 Z M 0.59375 0 "/></g></g></g><g fill="#121212" fill-opacity="1"><g transform="translate(59.683168, 17.600808)"><g><path d="M 0.765625 0 L 0.765625 -7.984375 L 6.15625 -7.984375 L 6.15625 -6.203125 L 3.0625 -6.203125 L 3.0625 -4.5 L 5.53125 -4.5 L 5.53125 -2.828125 L 3.0625 -2.828125 L 3.0625 0 Z M 0.765625 0 "/></g></g></g><g fill="#121212" fill-opacity="1"><g transform="translate(65.86527, 17.600808)"><g><path d="M 2.234375 0.140625 C 1.660156 0.140625 1.1875 -0.00390625 0.8125 -0.296875 C 0.4375 -0.585938 0.25 -1.03125 0.25 -1.625 C 0.25 -2.894531 1.285156 -3.53125 3.359375 -3.53125 L 3.921875 -3.53125 L 3.921875 -3.65625 C 3.921875 -3.957031 3.863281 -4.1875 3.75 -4.34375 C 3.644531 -4.5 3.441406 -4.578125 3.140625 -4.578125 C 2.671875 -4.578125 2.410156 -4.347656 2.359375 -3.890625 L 0.484375 -3.890625 C 0.523438 -4.578125 0.796875 -5.097656 1.296875 -5.453125 C 1.796875 -5.804688 2.453125 -5.984375 3.265625 -5.984375 C 4.097656 -5.984375 4.742188 -5.800781 5.203125 -5.4375 C 5.671875 -5.082031 5.90625 -4.53125 5.90625 -3.78125 L 5.90625 0 L 3.953125 0 L 3.953125 -0.6875 C 3.597656 -0.132812 3.023438 0.140625 2.234375 0.140625 Z M 2.921875 -1.21875 C 3.210938 -1.21875 3.453125 -1.289062 3.640625 -1.4375 C 3.828125 -1.59375 3.921875 -1.796875 3.921875 -2.046875 L 3.921875 -2.40625 L 3.390625 -2.40625 C 2.984375 -2.40625 2.6875 -2.359375 2.5 -2.265625 C 2.320312 -2.171875 2.234375 -2.003906 2.234375 -1.765625 C 2.234375 -1.398438 2.460938 -1.21875 2.921875 -1.21875 Z M 2.921875 -1.21875 "/></g></g></g><g fill="#121212" fill-opacity="1"><g transform="translate(72.315285, 17.600808)"><g><path d="M 4.8125 -0.359375 C 4.351562 -0.0234375 3.707031 0.140625 2.875 0.140625 C 2.039062 0.140625 1.390625 -0.0234375 0.921875 -0.359375 C 0.460938 -0.703125 0.222656 -1.203125 0.203125 -1.859375 L 2.046875 -1.859375 C 2.078125 -1.628906 2.148438 -1.457031 2.265625 -1.34375 C 2.390625 -1.238281 2.585938 -1.1875 2.859375 -1.1875 C 3.335938 -1.1875 3.578125 -1.347656 3.578125 -1.671875 C 3.578125 -1.816406 3.492188 -1.925781 3.328125 -2 C 3.171875 -2.070312 2.894531 -2.140625 2.5 -2.203125 C 1.707031 -2.304688 1.140625 -2.492188 0.796875 -2.765625 C 0.453125 -3.035156 0.28125 -3.472656 0.28125 -4.078125 C 0.28125 -4.691406 0.515625 -5.160156 0.984375 -5.484375 C 1.460938 -5.816406 2.0625 -5.984375 2.78125 -5.984375 C 4.375 -5.984375 5.234375 -5.359375 5.359375 -4.109375 L 3.546875 -4.109375 C 3.472656 -4.492188 3.222656 -4.6875 2.796875 -4.6875 C 2.585938 -4.6875 2.425781 -4.644531 2.3125 -4.5625 C 2.195312 -4.476562 2.140625 -4.367188 2.140625 -4.234375 C 2.140625 -4.097656 2.210938 -3.992188 2.359375 -3.921875 C 2.503906 -3.847656 2.757812 -3.789062 3.125 -3.75 C 3.96875 -3.644531 4.578125 -3.457031 4.953125 -3.1875 C 5.328125 -2.914062 5.515625 -2.476562 5.515625 -1.875 C 5.515625 -1.195312 5.28125 -0.691406 4.8125 -0.359375 Z M 4.8125 -0.359375 "/></g></g></g><g fill="#121212" fill-opacity="1"><g transform="translate(78.062276, 17.600808)"><g><path d="M 2.90625 0.140625 C 1.539062 0.140625 0.859375 -0.53125 0.859375 -1.875 L 0.859375 -4.46875 L 0.15625 -4.46875 L 0.15625 -5.828125 L 0.859375 -5.828125 L 0.859375 -7.046875 L 2.859375 -7.046875 L 2.859375 -5.828125 L 4 -5.828125 L 4 -4.46875 L 2.859375 -4.46875 L 2.859375 -2.0625 C 2.859375 -1.65625 3.054688 -1.453125 3.453125 -1.453125 C 3.648438 -1.453125 3.835938 -1.484375 4.015625 -1.546875 L 4.015625 -0.03125 C 3.585938 0.0820312 3.21875 0.140625 2.90625 0.140625 Z M 2.90625 0.140625 "/></g></g></g></svg>