<?xml version="1.0" encoding="UTF-8" standalone="no"?>
<!-- Created with Inkscape (http://www.inkscape.org/) -->

<svg
   xmlns:dc="http://purl.org/dc/elements/1.1/"
   xmlns:cc="http://creativecommons.org/ns#"
   xmlns:rdf="http://www.w3.org/1999/02/22-rdf-syntax-ns#"
   xmlns:svg="http://www.w3.org/2000/svg"
   xmlns="http://www.w3.org/2000/svg"
   xmlns:sodipodi="http://sodipodi.sourceforge.net/DTD/sodipodi-0.dtd"
   xmlns:inkscape="http://www.inkscape.org/namespaces/inkscape"
   width="410.58087"
   height="76.468948"
   viewBox="0 0 410.58091 76.468951"
   id="svg4980"
   version="1.1"
   inkscape:version="0.91 r13725"
   sodipodi:docname="benelli.svg">
  <defs
     id="defs4982">
	
	
	
	
	
	
	
	
	
	
	
</defs>
  <sodipodi:namedview
     id="base"
     pagecolor="#ffffff"
     bordercolor="#666666"
     borderopacity="1.0"
     inkscape:pageopacity="0.0"
     inkscape:pageshadow="2"
     inkscape:zoom="2.1238558"
     inkscape:cx="213.05592"
     inkscape:cy="37.73445"
     inkscape:document-units="px"
     inkscape:current-layer="layer1"
     showgrid="false"
     inkscape:window-width="1280"
     inkscape:window-height="744"
     inkscape:window-x="-4"
     inkscape:window-y="-4"
     inkscape:window-maximized="1"
     fit-margin-top="0"
     fit-margin-left="0"
     fit-margin-right="0"
     fit-margin-bottom="0"
     units="px" />
  <metadata
     id="metadata4985">
    <rdf:RDF>
      <cc:Work
         rdf:about="">
        <dc:format>image/svg+xml</dc:format>
        <dc:type
           rdf:resource="http://purl.org/dc/dcmitype/StillImage" />
        <dc:title></dc:title>
      </cc:Work>
    </rdf:RDF>
  </metadata>
  <g
     inkscape:label="Layer 1"
     inkscape:groupmode="layer"
     id="layer1"
     transform="translate(1341.6273,-1047.9135)">
    <g
       id="g5050"
       transform="translate(0.50001072,-0.49995844)">
      <path
         id="path4991"
         d="m -1227.0203,1065.8715 c 3.299,0 5.455,0.149 6.469,0.45 1.371,0.4 2.475,1.143 3.308,2.225 0.833,1.085 1.249,2.343 1.249,3.776 0,1.869 -0.711,3.393 -2.131,4.575 -1.422,1.184 -3.93,1.776 -7.523,1.776 l -8.82,0 0,-12.802 7.448,0 z m 5.881,56.207 c 5.488,0 9.366,-0.257 11.639,-0.776 2.27,-0.516 4.563,-1.356 6.885,-2.525 2.318,-1.165 4.084,-2.366 5.293,-3.6 1.764,-1.699 3.136,-3.816 4.115,-6.351 0.98,-2.533 1.471,-5.351 1.471,-8.451 0,-4.331 -1.071,-7.966 -3.209,-10.901 -2.142,-2.932 -5.023,-6.082 -8.65,-7.083 6.142,-4.03 9.213,-7.984 9.213,-14.218 0,-6.467 -2.695,-11.385 -8.086,-14.753 -4.15,-2.6 -10.603,-3.899 -19.357,-3.899 l -35.187,0 0,72.558 35.873,0 z m -2.64,-30.355 c 4.606,0 7.645,0.585 9.115,1.75 1.469,1.168 2.205,2.835 2.205,5.002 0,2.2 -0.753,3.918 -2.255,5.149 -1.504,1.234 -4.526,1.851 -9.065,1.851 l -10.689,0 0,-13.752 10.689,0 z"
         inkscape:connector-curvature="0"
         style="stroke:#000000;stroke-width:1.1638" />
      <path
         id="path4993"
         d="m -1165.8183,1082.9965 c 1.599,-1.565 3.691,-2.35 6.272,-2.35 2.874,0 5.161,0.825 6.86,2.474 1.698,1.651 2.58,3.911 2.646,6.777 l -18.572,0 c 0.26,-3.033 1.192,-5.333 2.794,-6.901 z m 35.087,6.8 c -1.176,-4.566 -3.16,-8.541 -5.954,-11.926 -2.791,-3.382 -6.207,-5.875 -10.242,-7.475 -4.035,-1.6 -8.354,-2.401 -12.962,-2.401 -8.82,0 -15.91,2.676 -21.269,8.025 -5.358,5.351 -8.036,12.227 -8.036,20.628 0,7.935 2.653,14.444 7.964,19.528 5.309,5.082 12.635,7.625 21.979,7.625 5.848,0 10.895,-1.018 15.143,-3.052 4.246,-2.03 7.546,-4.63 9.898,-7.8 1.438,-1.932 2.434,-4.166 2.989,-6.701 l -19.651,0 c -1.438,2.869 -3.92,4.3 -7.447,4.3 -3.268,0 -5.792,-0.875 -7.571,-2.624 -1.782,-1.75 -2.738,-4.191 -2.867,-7.327 l 39.155,0 c 0.029,-4.266 -0.345,-7.865 -1.129,-10.8 z"
         inkscape:connector-curvature="0"
         style="stroke:#000000;stroke-width:1.1638" />
      <path
         id="path4995"
         d="m -1044.2593,1082.9965 c 1.598,-1.565 3.689,-2.35 6.272,-2.35 2.874,0 5.162,0.825 6.862,2.474 1.696,1.651 2.578,3.911 2.646,6.777 l -18.574,0 c 0.261,-3.033 1.192,-5.333 2.794,-6.901 z m 35.088,6.8 c -1.177,-4.566 -3.162,-8.541 -5.955,-11.926 -2.791,-3.382 -6.207,-5.875 -10.242,-7.475 -4.035,-1.6 -8.354,-2.401 -12.961,-2.401 -8.822,0 -15.911,2.676 -21.27,8.025 -5.358,5.351 -8.037,12.227 -8.037,20.628 0,7.935 2.654,14.444 7.965,19.528 5.309,5.082 12.633,7.625 21.978,7.625 5.849,0 10.895,-1.018 15.145,-3.052 4.245,-2.03 7.543,-4.63 9.896,-7.8 1.438,-1.932 2.433,-4.166 2.989,-6.701 l -19.648,0 c -1.44,2.869 -3.921,4.3 -7.45,4.3 -3.267,0 -5.791,-0.875 -7.57,-2.624 -1.783,-1.75 -2.739,-4.191 -2.866,-7.327 l 39.154,0 c 0.028,-4.266 -0.345,-7.865 -1.128,-10.8 z"
         inkscape:connector-curvature="0"
         style="stroke:#000000;stroke-width:1.1638" />
      <path
         id="path4997"
         d="m -1126.8813,1122.0545 0,-51.573 18.915,0 0,7.019 c 2.483,-3.432 5.104,-4.718 7.867,-6.219 2.759,-1.499 6.002,-2.25 9.726,-2.25 6.339,0 11.249,1.793 14.729,5.375 3.479,3.585 5.217,7.729 5.217,14.795 l 0,32.853 -20.679,0 0,-29.052 c 0,-3.068 -0.646,-5.292 -1.936,-6.676 -1.294,-1.381 -3.111,-2.075 -5.465,-2.075 -2.32,0 -4.199,0.811 -5.635,2.425 -1.44,1.619 -2.157,4.21 -2.157,7.775 l 0,27.603 -20.582,0 z"
         inkscape:connector-curvature="0"
         style="stroke:#000000;stroke-width:1.1638" />
      <path
         id="path4999"
         d="m -1005.3193,1122.1775 0,-72.658 20.852,0 0,72.658 -20.852,0 z"
         inkscape:connector-curvature="0"
         style="stroke:#000000;stroke-width:1.1638" />
      <path
         id="path5001"
         d="m -979.1613,1122.1775 0,-72.658 20.852,0 0,72.658 -20.852,0 z"
         inkscape:connector-curvature="0"
         style="stroke:#000000;stroke-width:1.1638" />
      <path
         id="path5003"
         d="m -953.6303,1122.0405 0,-47.877 21.002,0 0,47.877 -21.002,0 z"
         inkscape:connector-curvature="0"
         style="stroke:#000000;stroke-width:1.1638" />
      <circle
         id="circle5005"
         r="9.9610004"
         cy="1060.0186"
         cx="-943.26831"
         style="stroke:#000000;stroke-width:1.1638" />
      <rect
         id="rect5007"
         height="8.493"
         width="72.143997"
         x="-1341.6273"
         y="1048.9135"
         style="fill:#ee3224" />
      <path
         id="path5009"
         d="m -1341.6273,1075.5375 0,47.153 72.144,0 0,-63.702 c 0,0 -34.796,-0.754 -72.144,16.549 z"
         inkscape:connector-curvature="0"
         style="fill:#ee3224" />
    </g>
  </g>
</svg>
